<svg width="24" height="24" viewBox="0 0 24 24" fill="none" xmlns="http://www.w3.org/2000/svg">
<path d="M15.5 14.255H14.71L14.43 13.985C15.41 12.845 16 11.365 16 9.755C16 6.165 13.09 3.255 9.5 3.255C5.91 3.255 3 6.165 3 9.755C3 13.345 5.91 16.255 9.5 16.255C11.11 16.255 12.59 15.665 13.73 14.685L14 14.965V15.755L19 20.745L20.49 19.255L15.5 14.255ZM9.5 14.255C7.01 14.255 5 12.245 5 9.755C5 7.26501 7.01 5.255 9.5 5.255C11.99 5.255 14 7.26501 14 9.755C14 12.245 11.99 14.255 9.5 14.255Z" fill="currentColor"/>
</svg>
